<?xml version="1.0" encoding="UTF-8" standalone="no"?>
<!DOCTYPE svg PUBLIC "-//W3C//DTD SVG 1.1//EN" "http://www.w3.org/Graphics/SVG/1.1/DTD/svg11.dtd">
<svg width="100%" height="100%" viewBox="0 0 442 125" version="1.1" xmlns="http://www.w3.org/2000/svg" xmlns:xlink="http://www.w3.org/1999/xlink" xml:space="preserve" xmlns:serif="http://www.serif.com/" style="fill-rule:evenodd;clip-rule:evenodd;stroke-linejoin:round;stroke-miterlimit:2;">
    <g id="Artboard3" transform="matrix(1,0,0,1,0,150.561)">
        <rect x="0" y="-150.561" width="441.28" height="124.657" style="fill:none;"/>
        <g transform="matrix(8.06978,0,0,8.06978,-1133.33,-1872.02)">
            <g transform="matrix(8.71973,0,0,8.71973,141.785,224.254)">
                <path d="M0.749,-0L0.455,-0.74L0.306,-0.74L0.009,-0L0.212,-0L0.251,-0.107L0.508,-0.107L0.544,-0L0.749,-0ZM0.458,-0.257L0.303,-0.257L0.379,-0.51L0.382,-0.509L0.458,-0.257Z" style="fill:white;fill-rule:nonzero;"/>
            </g>
            <g transform="matrix(8.71973,0,0,8.71973,148.395,224.254)">
                <rect x="0.06" y="-0.74" width="0.166" height="0.74" style="fill:white;fill-rule:nonzero;"/>
            </g>
            <g transform="matrix(8.71973,0,0,8.71973,150.888,224.254)">
                <path d="M0.259,-0L0.259,-0.429L0.339,-0.429L0.339,-0.555L0.259,-0.555L0.259,-0.74L0.093,-0.74L0.093,-0.555L0.011,-0.555L0.011,-0.429L0.093,-0.429L0.093,-0L0.259,-0Z" style="fill:white;fill-rule:nonzero;"/>
            </g>
            <g transform="matrix(8.71973,0,0,8.71973,153.818,224.254)">
                <path d="M0.632,-0.28C0.632,-0.448 0.5,-0.573 0.333,-0.573C0.167,-0.573 0.034,-0.45 0.034,-0.278C0.034,-0.108 0.164,0.017 0.333,0.017C0.5,0.017 0.632,-0.106 0.632,-0.28ZM0.333,-0.138C0.258,-0.138 0.2,-0.202 0.2,-0.278C0.2,-0.354 0.259,-0.418 0.332,-0.418C0.41,-0.418 0.466,-0.352 0.466,-0.278C0.466,-0.204 0.411,-0.138 0.333,-0.138Z" style="fill:white;fill-rule:nonzero;"/>
            </g>
            <g transform="matrix(8.71973,0,0,8.71973,159.8,224.254)">
                <rect x="0" y="-0.37" width="0.281" height="0.163" style="fill:white;fill-rule:nonzero;"/>
            </g>
            <g transform="matrix(8.71973,0,0,8.71973,162.381,224.254)">
                <path d="M0.544,-0.524C0.543,-0.623 0.505,-0.682 0.426,-0.723C0.387,-0.743 0.344,-0.754 0.295,-0.754C0.159,-0.754 0.037,-0.662 0.037,-0.536C0.037,-0.44 0.092,-0.376 0.213,-0.327C0.28,-0.3 0.362,-0.274 0.362,-0.215C0.362,-0.175 0.33,-0.144 0.291,-0.144C0.244,-0.144 0.214,-0.184 0.213,-0.245L0.025,-0.245L0.025,-0.229C0.025,-0.07 0.131,0.014 0.292,0.014C0.452,0.014 0.55,-0.07 0.55,-0.213C0.55,-0.31 0.509,-0.369 0.346,-0.439C0.265,-0.474 0.225,-0.494 0.225,-0.538C0.225,-0.571 0.255,-0.596 0.29,-0.596C0.327,-0.596 0.349,-0.577 0.357,-0.524L0.544,-0.524Z" style="fill:white;fill-rule:nonzero;"/>
            </g>
            <g transform="matrix(8.71973,0,0,8.71973,167.378,224.254)">
                <path d="M0.574,-0L0.574,-0.349C0.574,-0.494 0.497,-0.574 0.37,-0.574C0.304,-0.574 0.25,-0.547 0.226,-0.502L0.226,-0.74L0.06,-0.74L0.06,-0L0.226,-0L0.226,-0.312C0.226,-0.381 0.256,-0.418 0.319,-0.418C0.38,-0.418 0.408,-0.377 0.408,-0.305L0.408,-0L0.574,-0Z" style="fill:white;fill-rule:nonzero;"/>
            </g>
            <g transform="matrix(8.71973,0,0,8.71973,172.888,224.254)">
                <path d="M0.632,-0.28C0.632,-0.448 0.5,-0.573 0.333,-0.573C0.167,-0.573 0.034,-0.45 0.034,-0.278C0.034,-0.108 0.164,0.017 0.333,0.017C0.5,0.017 0.632,-0.106 0.632,-0.28ZM0.333,-0.138C0.258,-0.138 0.2,-0.202 0.2,-0.278C0.2,-0.354 0.259,-0.418 0.332,-0.418C0.41,-0.418 0.466,-0.352 0.466,-0.278C0.466,-0.204 0.411,-0.138 0.333,-0.138Z" style="fill:white;fill-rule:nonzero;"/>
            </g>
            <g transform="matrix(8.71973,0,0,8.71973,178.696,224.254)">
                <path d="M0.225,-0L0.225,-0.306C0.225,-0.369 0.257,-0.406 0.356,-0.407L0.356,-0.574C0.292,-0.574 0.246,-0.555 0.217,-0.496L0.215,-0.496L0.215,-0.555L0.059,-0.555L0.059,-0L0.225,-0Z" style="fill:white;fill-rule:nonzero;"/>
            </g>
            <g transform="matrix(8.71973,0,0,8.71973,182.035,224.254)">
                <path d="M0.259,-0L0.259,-0.429L0.339,-0.429L0.339,-0.555L0.259,-0.555L0.259,-0.74L0.093,-0.74L0.093,-0.555L0.011,-0.555L0.011,-0.429L0.093,-0.429L0.093,-0L0.259,-0Z" style="fill:white;fill-rule:nonzero;"/>
            </g>
            <g transform="matrix(8.71973,0,0,8.71973,184.965,224.254)">
                <path d="M0.61,-0.227C0.613,-0.242 0.614,-0.255 0.614,-0.271C0.614,-0.443 0.487,-0.574 0.321,-0.574C0.158,-0.574 0.03,-0.436 0.03,-0.276C0.03,-0.111 0.164,0.018 0.324,0.018C0.441,0.018 0.542,-0.053 0.595,-0.174L0.425,-0.174C0.398,-0.139 0.369,-0.122 0.324,-0.122C0.256,-0.122 0.203,-0.164 0.194,-0.227L0.61,-0.227ZM0.196,-0.339C0.209,-0.398 0.261,-0.434 0.321,-0.434C0.385,-0.434 0.435,-0.396 0.448,-0.339L0.196,-0.339Z" style="fill:white;fill-rule:nonzero;"/>
            </g>
            <g transform="matrix(8.71973,0,0,8.71973,190.598,224.254)">
                <path d="M0.225,-0L0.225,-0.306C0.225,-0.369 0.257,-0.406 0.356,-0.407L0.356,-0.574C0.292,-0.574 0.246,-0.555 0.217,-0.496L0.215,-0.496L0.215,-0.555L0.059,-0.555L0.059,-0L0.225,-0Z" style="fill:white;fill-rule:nonzero;"/>
            </g>
        </g>
    </g>
</svg>
